<?xml version="1.0" encoding="UTF-8"?>
<svg width="16px" height="16px" viewBox="0 0 16 16" version="1.1" xmlns="http://www.w3.org/2000/svg" xmlns:xlink="http://www.w3.org/1999/xlink">
    <title>帮扶医院</title>
    <g id="页面-1" stroke="none" stroke-width="1" fill="none" fill-rule="evenodd">
        <g id="线性" transform="translate(-925.863035, -6.390233)" fill="#000000" fill-rule="nonzero">
            <g id="帮扶医院" transform="translate(925.863035, 6.390233)">
                <rect id="矩形" opacity="0" x="0" y="0" width="16" height="16"></rect>
                <g id="编组-7" transform="translate(1.742474, 1.747097)">
                    <path d="M8.00418071,0 C8.55646546,0 9.00418071,0.44771525 9.00418071,1 L9.004,5.005 L11.5150512,5.00584036 C12.0673359,5.00584036 12.5150512,5.45355561 12.5150512,6.00584036 L12.5150512,11.5058065 C12.5150512,12.0580913 12.0673359,12.5058065 11.5150512,12.5058065 L1,12.5058065 C0.44771525,12.5058065 0,12.0580913 0,11.5058065 L0,1 C0,0.44771525 0.44771525,0 1,0 L8.00418071,0 Z M8.00418071,1 L1,1 L1,11.5058065 L7.997,11.505 L7.99754961,5.00584036 L8.00418071,1 Z M11.5150512,6.00584036 L9.004,6.005 L9.004,11.504 L11.5150512,11.5058065 L11.5150512,6.00584036 Z M5.00209035,3.00783063 L5.00209035,5.00683063 L7.00209035,5.00783063 L7.00209035,6.00783063 L5.00209035,6.00683063 L5.00209035,8.00783063 L4.00209035,8.00783063 L4.00209035,6.00683063 L2.00209035,6.00783063 L2.00209035,5.00783063 L4.00209035,5.00683063 L4.00209035,3.00783063 L5.00209035,3.00783063 Z" id="形状结合"></path>
                </g>
            </g>
        </g>
    </g>
</svg>