<svg xmlns="http://www.w3.org/2000/svg" width="16" height="16" viewBox="0 0 16 16">
  <g id="页面-1" transform="translate(0 0.27)">
    <g id="iPhone-8" transform="translate(0 -0.27)">
      <g id="调度管理">
        <rect id="矩形" width="16" height="16" opacity="0"/>
        <path id="形状结合" d="M16.384,6.016a.516.516,0,0,1,.5.527h0v8.166a.516.516,0,0,1-.5.527h-6V17.08H13.1a.259.259,0,0,1,.252.263h0v.79a.129.129,0,0,1-.126.132H6.411a.129.129,0,0,1-.126-.132h0v-.79a.259.259,0,0,1,.252-.263H9.251V15.236h-6a.516.516,0,0,1-.5-.527h0V6.542a.516.516,0,0,1,.5-.527H16.384ZM15.753,7.2H3.886V14.05H15.753Zm-3.212,3.535a1.1,1.1,0,0,1,.992.648h.717c.044,0,.081.059.081.132h0v.922c0,.072-.036.132-.081.132h-.823a1.075,1.075,0,0,1-1.77,0H5.39c-.044,0-.081-.059-.081-.132h0v-.922c0-.072.036-.132.081-.132h6.159A1.1,1.1,0,0,1,12.541,10.736ZM7.253,7.7a1.1,1.1,0,0,1,.988.64h6.008c.044,0,.081.059.081.132h0V9.4c0,.072-.036.132-.081.132h-6.1a1.075,1.075,0,0,1-1.782,0H5.39c-.044,0-.081-.059-.081-.132h0V8.474c0-.072.036-.132.081-.132h.876A1.1,1.1,0,0,1,7.253,7.7Z" transform="translate(-1.954 -4.006)"/>
      </g>
    </g>
  </g>
</svg>
